<svg width="25" height="25" viewBox="0 0 25 25" fill="none" xmlns="http://www.w3.org/2000/svg">
<path d="M12.5001 2.60425C7.04175 2.60425 2.60425 7.04175 2.60425 12.5001C2.60425 17.9584 7.04175 22.3959 12.5001 22.3959C17.9584 22.3959 22.3959 17.9584 22.3959 12.5001C22.3959 7.04175 17.9584 2.60425 12.5001 2.60425ZM14.2813 14.8855C14.6876 15.2917 14.6876 15.9584 14.2813 16.3647C14.073 16.5626 13.8126 16.6667 13.5417 16.6667C13.2709 16.6667 13.0105 16.5626 12.8022 16.3647L9.67717 13.2397C9.27092 12.8334 9.27092 12.1667 9.67717 11.7605L12.8022 8.6355C13.2084 8.22925 13.8751 8.22925 14.2813 8.6355C14.6876 9.04175 14.6876 9.70842 14.2813 10.1147L11.8855 12.5001L14.2813 14.8855Z" fill="#232323"/>
</svg>
