<svg width="25" height="25" viewBox="0 0 25 25" fill="none" xmlns="http://www.w3.org/2000/svg">
<path d="M12.5 2.60425C7.04163 2.60425 2.60413 7.04175 2.60413 12.5001C2.60413 17.9584 7.04163 22.3959 12.5 22.3959C17.9583 22.3959 22.3958 17.9584 22.3958 12.5001C22.3958 7.04175 17.9583 2.60425 12.5 2.60425ZM15.3229 13.2397L12.1979 16.3647C11.9895 16.5626 11.7291 16.6667 11.4583 16.6667C11.1875 16.6667 10.927 16.5626 10.7187 16.3647C10.3125 15.9584 10.3125 15.2917 10.7187 14.8855L13.1145 12.5001L10.7187 10.1147C10.3125 9.70842 10.3125 9.04175 10.7187 8.6355C11.125 8.22925 11.7916 8.22925 12.1979 8.6355L15.3229 11.7605C15.7291 12.1667 15.7291 12.8334 15.3229 13.2397Z" fill="#232323"/>
</svg>
